<svg width="40" height="44" viewBox="0 0 40 44" fill="none" xmlns="http://www.w3.org/2000/svg">
<path d="M40 31.9C40 32.736 39.5333 33.462 38.8222 33.836L21.2667 43.604C20.9111 43.868 20.4667 44 20 44C19.5333 44 19.0889 43.868 18.7333 43.604L1.17779 33.836C0.821519 33.6507 0.523369 33.3722 0.315727 33.0309C0.108084 32.6896 -0.00110927 32.2984 8.49609e-06 31.9V12.1C8.49609e-06 11.264 0.466675 10.538 1.17779 10.164L18.7333 0.396C19.0889 0.132 19.5333 0 20 0C20.4667 0 20.9111 0.132 21.2667 0.396L38.8222 10.164C39.5333 10.538 40 11.264 40 12.1V31.9ZM20 4.73L6.75556 12.1L20 19.47L33.2444 12.1L20 4.73Z" fill="black"/>
</svg>
