<svg width="63" height="70" viewBox="0 0 63 70" fill="none" xmlns="http://www.w3.org/2000/svg">
<path d="M63 50.75C63 52.08 62.265 53.235 61.145 53.83L33.495 69.37C32.935 69.79 32.235 70 31.5 70C30.765 70 30.065 69.79 29.505 69.37L1.85501 53.83C1.29389 53.5351 0.824306 53.0921 0.497269 52.5491C0.170233 52.0061 -0.0017471 51.3839 1.33813e-05 50.75V19.25C1.33813e-05 17.92 0.735013 16.765 1.85501 16.17L29.505 0.63C30.065 0.21 30.765 0 31.5 0C32.235 0 32.935 0.21 33.495 0.63L61.145 16.17C62.265 16.765 63 17.92 63 19.25V50.75ZM31.5 7.525L10.64 19.25L31.5 30.975L52.36 19.25L31.5 7.525Z" fill="black"/>
</svg>
